<svg width="33" height="32" viewBox="0 0 33 32" fill="none" xmlns="http://www.w3.org/2000/svg">
<g id="Icon / beverages">
<g id="Icon">
<path id="Shape" fill-rule="evenodd" clip-rule="evenodd" d="M11.8605 4.07153V11.9121L14.3997 14.2426C14.8641 14.6569 15.2667 15.4596 15.2667 16.0292V27.9285C15.2667 29.0679 14.121 30 12.7276 30H6.03913C4.6457 30 3.5 29.0679 3.5 27.9285V16.0292C3.5 15.4596 3.90254 14.6569 4.36702 14.2685L6.90615 11.9121V4.07153H11.8605ZM12.7276 28.9642C13.4397 28.9642 14.0281 28.4981 14.0281 27.9284H14.059V16.055C14.059 15.7443 13.7804 15.2005 13.5326 14.9934L13.5017 14.9675L13.4707 14.9416L10.9316 12.5853L10.6219 12.3004V11.912V5.10718H8.14473V11.912V12.3004L7.83508 12.5853L5.32692 14.9157L5.29596 14.9416L5.26499 14.9675C4.98631 15.2005 4.73859 15.7184 4.73859 16.0291V27.9284C4.73859 28.4981 5.32692 28.9642 6.03912 28.9642H12.7276Z" fill="#828487"/>
<path id="Shape_2" d="M7.2902 3.03575H11.6253C11.9659 3.03575 12.2446 2.8027 12.2446 2.51787C12.2446 2.23304 11.9659 2 11.6253 2H7.2902C6.94958 2 6.6709 2.23304 6.6709 2.51787C6.6709 2.8027 6.94958 3.03575 7.2902 3.03575Z" fill="#828487"/>
<path id="Shape_3" fill-rule="evenodd" clip-rule="evenodd" d="M7.21565 17.4431H11.5507C12.232 17.4431 12.7893 17.9092 12.7893 18.4789V23.9165C12.7893 24.4862 12.232 24.9523 11.5507 24.9523H7.21565C6.53442 24.9523 5.97705 24.4862 5.97705 23.9165V18.4789C5.97705 17.9092 6.53442 17.4431 7.21565 17.4431ZM7.21564 23.9164H11.5507V18.4788H7.21564V23.9164Z" fill="#828487"/>
<path id="Shape_4" fill-rule="evenodd" clip-rule="evenodd" d="M26.9094 12.8665C26.7546 12.6075 26.3211 12.4263 25.9805 12.4263H20.0042C19.6636 12.4263 19.2301 12.6334 19.0753 12.8665C19.0299 12.9375 18.9804 13.0143 18.9273 13.0965C17.5697 15.2015 13.9337 20.839 19.4469 23.5554C19.6922 23.6807 19.9555 23.786 20.2183 23.8912L20.2184 23.8912C20.5527 24.0249 20.8862 24.1582 21.1809 24.3322C21.6144 24.5911 22.1099 24.9795 22.3576 25.4456V28.6461H20.4997C20.1591 28.6461 19.8804 28.8791 19.8804 29.164C19.8804 29.4488 20.1591 29.6818 20.4997 29.6818H25.4541C25.7947 29.6818 26.0734 29.4488 26.0734 29.164C26.0734 28.8791 25.7947 28.6461 25.4541 28.6461H23.5962V25.4974C23.8439 25.0054 24.3393 24.6429 24.7728 24.384C25.1104 24.1681 25.4989 24.0162 25.8812 23.8666C26.095 23.783 26.3069 23.7001 26.5069 23.6072C32.0355 20.8877 28.4748 15.3167 27.0903 13.1507C27.0247 13.0481 26.964 12.9531 26.9094 12.8665ZM19.7147 14.1102L19.7147 14.1102C19.8681 13.8733 20.0086 13.6564 20.1282 13.4619H25.8877C26.0266 13.6878 26.2321 13.9851 26.463 14.3192L26.463 14.3192C27.1585 15.3255 28.0846 16.6655 28.1171 17.3926C28.1326 17.4832 28.1481 17.5674 28.1636 17.6515C28.1791 17.7357 28.1946 17.8198 28.21 17.9105L28.1428 17.9223C27.4929 18.0375 25.7257 18.3506 23.0079 18.3506C20.3449 18.3506 18.4251 18.014 17.8058 17.8846C17.8164 17.8311 17.8234 17.7744 17.8305 17.7168C17.8439 17.6067 17.8578 17.4932 17.8987 17.3926C18.4191 16.1114 19.1535 14.9771 19.7147 14.1102ZM25.2993 22.9339C25.5161 22.8562 25.7328 22.7786 25.9186 22.675C27.4669 21.9241 28.241 20.6812 28.3339 18.9463C27.5288 19.1017 25.7019 19.3865 23.0698 19.3865C20.5307 19.3865 18.6419 19.1017 17.8058 18.9463C17.8058 20.6812 18.6109 21.8982 20.1591 22.675C20.2189 22.7 20.2819 22.7277 20.3471 22.7563C20.4845 22.8166 20.6314 22.8812 20.7784 22.9339C20.8446 22.9616 20.9127 22.9892 20.9822 23.0175C21.3034 23.1479 21.6552 23.2907 21.9861 23.5036C22.4196 23.7625 22.7602 24.0473 23.0389 24.3322C23.2866 24.0473 23.6582 23.7625 24.0917 23.5036C24.4942 23.2705 24.9277 23.0893 25.2993 22.9339L25.2993 22.9339Z" fill="#828487"/>
</g>
</g>
</svg>
