<svg width="33" height="32" viewBox="0 0 33 32" fill="none" xmlns="http://www.w3.org/2000/svg">
<g id="Icon / misc">
<g id="Icon">
<path id="Shape" fill-rule="evenodd" clip-rule="evenodd" d="M2.5 16C2.5 8.28037 8.78037 2 16.5 2C24.2196 2 30.5 8.28037 30.5 16C30.5 23.7196 24.2196 30 16.5 30C8.78037 30 2.5 23.7196 2.5 16ZM3.67429 16C3.67429 23.0722 9.4278 28.8257 16.5 28.8257C23.5722 28.8257 29.3257 23.0718 29.3257 16C29.3257 8.9278 23.5722 3.17429 16.5 3.17429C9.4278 3.17429 3.67429 8.9278 3.67429 16Z" fill="#828487"/>
<path id="Shape_2" fill-rule="evenodd" clip-rule="evenodd" d="M16.3074 11.6229C18.6294 11.6229 20.5181 13.5119 20.5181 15.8336C20.5181 18.1553 18.6291 20.0443 16.3074 20.0443C13.9857 20.0443 12.0967 18.1556 12.0967 15.8336C12.0967 13.5116 13.9854 11.6229 16.3074 11.6229ZM13.1367 15.8338C13.1367 17.5817 14.5592 19.0045 16.3075 19.0045C18.0561 19.0045 19.4782 17.582 19.4782 15.8338C19.4782 14.0855 18.0557 12.6631 16.3075 12.6631C14.5592 12.6631 13.1367 14.0858 13.1367 15.8338Z" fill="#828487"/>
<path id="Shape_3" d="M16.815 8.70246L18.0565 9.02556C18.0859 9.03319 18.115 9.03665 18.1442 9.03665C18.2981 9.03665 18.4388 8.93335 18.4794 8.77734C18.5276 8.59187 18.4163 8.40258 18.2312 8.3544L16.9897 8.03129C16.8046 7.98276 16.615 8.0937 16.5668 8.27951C16.5189 8.46499 16.6299 8.65427 16.815 8.70246Z" fill="#828487"/>
<path id="Shape_4" d="M12.3696 9.7159C12.485 9.56337 12.4552 9.346 12.3024 9.23021C12.1495 9.11442 11.9321 9.14458 11.8167 9.29746L11.2304 10.0719C11.115 10.2245 11.1448 10.4418 11.2977 10.5576C11.3604 10.6051 11.4339 10.628 11.5067 10.628C11.6118 10.628 11.7154 10.5805 11.7834 10.4907L12.3696 9.7159Z" fill="#828487"/>
<path id="Shape_5" d="M14.9226 10.5995C14.9874 10.6533 15.0658 10.6793 15.1435 10.6793C15.2433 10.6793 15.3421 10.6363 15.4107 10.5538C15.5331 10.4064 15.5123 10.1877 15.365 10.0657L14.8072 9.60353C14.6595 9.48081 14.4414 9.50196 14.3191 9.64929C14.1967 9.79663 14.2175 10.0154 14.3648 10.1374L14.9226 10.5995Z" fill="#828487"/>
<path id="Shape_6" d="M20.6152 9.32962C20.6412 9.32962 20.6676 9.32685 20.6943 9.32061L21.675 9.09215C21.8615 9.04881 21.9776 8.8623 21.934 8.67579C21.8906 8.48928 21.7041 8.37383 21.518 8.41648L20.5372 8.64494C20.3507 8.68827 20.2346 8.87478 20.2782 9.06129C20.3153 9.22146 20.4578 9.32962 20.6152 9.32962Z" fill="#828487"/>
<path id="Shape_7" d="M23.8566 13.35L23.0783 12.9731C22.907 12.8896 22.6987 12.9617 22.6151 13.134C22.5319 13.3063 22.604 13.5136 22.7763 13.5972L23.5546 13.974C23.6032 13.9976 23.6545 14.0087 23.7054 14.0087C23.8341 14.0087 23.9582 13.9366 24.0178 13.8131C24.101 13.6408 24.0289 13.4335 23.8566 13.35Z" fill="#828487"/>
<path id="Shape_8" d="M18.3247 11.5313C18.3733 11.5545 18.4242 11.5656 18.4745 11.5656C18.6038 11.5656 18.7276 11.4931 18.7872 11.369L19.2126 10.4826C19.2954 10.3099 19.2226 10.103 19.05 10.0201C18.8763 9.93621 18.67 10.0101 18.5875 10.1827L18.1621 11.0692C18.0793 11.2414 18.1521 11.4488 18.3247 11.5313Z" fill="#828487"/>
<path id="Shape_9" d="M19.6598 21.4397C19.5204 21.3086 19.301 21.3159 19.1699 21.4556C19.0389 21.595 19.0462 21.8144 19.1859 21.9455L19.821 22.5411C19.8875 22.6038 19.9728 22.635 20.0581 22.635C20.1507 22.635 20.2425 22.5983 20.3108 22.5255C20.4419 22.3861 20.4346 22.1666 20.2949 22.0356L19.6598 21.4397Z" fill="#828487"/>
<path id="Shape_10" d="M23.2354 16.1556C23.1723 15.9747 22.975 15.8783 22.7944 15.9414L21.9204 16.244C21.7398 16.3068 21.6434 16.504 21.7062 16.685C21.7561 16.8285 21.8903 16.9183 22.0338 16.9183C22.0712 16.9183 22.1097 16.9121 22.1472 16.8992L23.0211 16.5966C23.2017 16.5338 23.2981 16.3366 23.2354 16.1556Z" fill="#828487"/>
<path id="Shape_11" d="M14.8534 22.9259L14.054 23.2556C13.8768 23.3287 13.7926 23.5315 13.8657 23.7087C13.9208 23.8425 14.0502 23.9229 14.1864 23.9229C14.2304 23.9229 14.2752 23.9146 14.3185 23.8969L15.1179 23.5672C15.2951 23.4941 15.3793 23.2913 15.3062 23.1141C15.233 22.937 15.0299 22.8534 14.8534 22.9259Z" fill="#828487"/>
<path id="Shape_12" d="M20.8413 19.0143L20.0686 19.4199C19.899 19.509 19.8335 19.7184 19.9226 19.8882C19.9847 20.0065 20.105 20.0737 20.2301 20.0737C20.2842 20.0737 20.3393 20.0609 20.391 20.0342L21.1637 19.6286C21.3332 19.5395 21.3988 19.3301 21.3097 19.1602C21.2206 18.9904 21.0115 18.9259 20.8413 19.0143Z" fill="#828487"/>
<path id="Shape_13" d="M23.4018 20.8694L22.7469 21.3388C22.5913 21.4501 22.5552 21.6668 22.6672 21.8224C22.7348 21.9171 22.8412 21.9673 22.9491 21.9673C23.0187 21.9673 23.0895 21.9462 23.1505 21.9022L23.8053 21.4328C23.961 21.3215 23.9971 21.1048 23.8851 20.9492C23.7741 20.7932 23.5575 20.7574 23.4018 20.8694Z" fill="#828487"/>
<path id="Shape_14" d="M21.6744 11.2062C21.4993 11.1268 21.2944 11.2048 21.2157 11.3792L20.6545 12.6206C20.5754 12.795 20.6531 13.0006 20.8275 13.0793C20.8739 13.1004 20.9221 13.1101 20.97 13.1101C21.102 13.1101 21.2282 13.0342 21.2861 12.9063L21.8474 11.6649C21.9264 11.4905 21.8488 11.2849 21.6744 11.2062Z" fill="#828487"/>
<path id="Shape_15" d="M9.70747 13.5725C9.82603 13.5725 9.94182 13.5115 10.0063 13.4019C10.1037 13.2369 10.0489 13.0244 9.88393 12.927L8.82934 12.3043C8.66467 12.2073 8.45181 12.2617 8.35439 12.4267C8.25698 12.5917 8.31175 12.8043 8.47677 12.9017L9.53136 13.5243C9.58717 13.5569 9.64784 13.5725 9.70747 13.5725Z" fill="#828487"/>
<path id="Shape_16" d="M12.8408 12.1575C12.7379 11.9959 12.5233 11.9488 12.3621 12.0514L11.6829 12.4847C11.5214 12.5877 11.4739 12.8019 11.5769 12.9635C11.6431 13.0671 11.7551 13.1237 11.8695 13.1237C11.9332 13.1237 11.9977 13.106 12.0556 13.0692L12.7348 12.6359C12.8963 12.5333 12.9435 12.319 12.8408 12.1575Z" fill="#828487"/>
<path id="Shape_17" d="M16.4653 21.5204L15.5785 21.2105C15.3978 21.1474 15.1999 21.2427 15.1371 21.4234C15.074 21.604 15.1694 21.8019 15.35 21.865L16.2368 22.175C16.2746 22.1881 16.3131 22.1944 16.3512 22.1944C16.4947 22.1944 16.6285 22.1049 16.6785 21.9621C16.7416 21.7815 16.6459 21.5835 16.4653 21.5204Z" fill="#828487"/>
<path id="Shape_18" d="M10.1095 19.5288L9.2816 19.9587C9.11173 20.0471 9.04552 20.2561 9.13392 20.4263C9.19563 20.5452 9.31662 20.6132 9.44177 20.6132C9.4955 20.6132 9.54993 20.6007 9.60124 20.5744L10.4291 20.1445C10.599 20.0561 10.6652 19.847 10.5768 19.6768C10.4887 19.5066 10.2793 19.4407 10.1095 19.5288Z" fill="#828487"/>
<path id="Shape_19" d="M10.4293 15.4917C10.2591 15.4029 10.0497 15.4692 9.96163 15.639L9.31508 16.8808C9.22668 17.0507 9.29289 17.2601 9.46242 17.3485C9.51338 17.3752 9.5685 17.3877 9.62224 17.3877C9.74739 17.3877 9.86838 17.3197 9.93008 17.2012L10.5766 15.9594C10.6654 15.7898 10.5992 15.5804 10.4293 15.4917Z" fill="#828487"/>
<path id="Shape_20" d="M12.5039 19.9161H12.5036C12.3118 19.9165 12.1569 20.0718 12.1572 20.2635L12.1586 21.1559C12.159 21.3472 12.3139 21.5018 12.5053 21.5018H12.5056C12.6973 21.5015 12.8523 21.3462 12.852 21.1545L12.8506 20.2621C12.8502 20.0708 12.6953 19.9161 12.5039 19.9161Z" fill="#828487"/>
<path id="Shape_21" d="M23.5814 18.3824L22.8669 18.4636C22.6766 18.485 22.5403 18.657 22.5618 18.847C22.5819 19.0238 22.7317 19.1545 22.9057 19.1545C22.9185 19.1545 22.9317 19.1538 22.9452 19.1521L23.6597 19.0709C23.85 19.0494 23.9863 18.8775 23.9648 18.6875C23.9433 18.4975 23.7762 18.3575 23.5814 18.3824Z" fill="#828487"/>
<path id="Shape_22" fill-rule="evenodd" clip-rule="evenodd" d="M27.2674 14.7663L27.2865 15.0117C27.2872 15.0252 27.2879 15.0388 27.2868 15.053V15.1757C27.2868 15.1878 27.2865 15.2003 27.2855 15.2128L27.2761 15.3449C27.2751 15.3591 27.2733 15.373 27.2712 15.3872L27.2342 15.6312C27.2324 15.6444 27.2296 15.6576 27.2265 15.6704L27.1981 15.7931C27.1959 15.8043 27.1928 15.8151 27.1896 15.8263L27.1887 15.8292L27.1135 16.0732C27.1083 16.0899 27.1028 16.1062 27.0958 16.1221L26.9579 16.4632C26.9488 16.4854 26.9388 16.5062 26.9273 16.527L26.677 16.9597C26.6712 16.9697 26.6649 16.9798 26.6583 16.9892L25.6346 18.4615L25.5275 18.9018L25.5212 19.0841L25.5399 19.5747L25.5874 20.3588C25.5878 20.3713 25.5878 20.3835 25.5874 20.3959L25.5684 20.916C25.568 20.9281 25.567 20.9402 25.5656 20.952L25.5372 21.2165C25.5358 21.2297 25.5337 21.2425 25.5313 21.2554L25.4228 21.7788L25.3524 22.042C25.3486 22.0558 25.3448 22.0693 25.3396 22.0829L25.2546 22.319C25.2494 22.3328 25.2442 22.3463 25.238 22.3599L25.134 22.5862L25.134 22.5863C25.1277 22.5991 25.1215 22.6119 25.1142 22.6244L24.9215 22.9617C24.9145 22.9745 24.9069 22.9863 24.8989 22.9977L24.6615 23.3174L24.4718 23.5292C24.4597 23.5427 24.4472 23.5552 24.4337 23.5673L24.2444 23.7379C24.2312 23.7504 24.217 23.7615 24.2025 23.7722L23.7743 24.0735C23.7598 24.0832 23.7449 24.0929 23.7293 24.1012L23.5025 24.2239C23.496 24.2274 23.4894 24.2306 23.4828 24.2338C23.4788 24.2357 23.4749 24.2376 23.471 24.2395L23.2446 24.3432C23.2293 24.3501 23.2141 24.356 23.1985 24.3616L22.6903 24.5276C22.6722 24.5332 22.6542 24.5377 22.6358 24.5412L22.1127 24.6302C22.1002 24.632 22.0881 24.6334 22.0756 24.6344L20.3606 24.7623L19.7557 24.9145L19.5671 24.9932L19.1868 25.2054L17.8937 26.0319L17.6434 26.1574C17.6305 26.1639 17.6177 26.1695 17.6045 26.175L17.1154 26.3609C17.1018 26.3661 17.0883 26.3699 17.0745 26.3737L16.829 26.4396C16.8169 26.4427 16.8047 26.4454 16.7926 26.4479L16.5472 26.4954C16.5333 26.4981 16.5194 26.5002 16.5056 26.502L16.2508 26.53C16.2386 26.5314 16.2261 26.5321 16.214 26.5328L15.6936 26.5425C15.6742 26.5425 15.6555 26.5415 15.6364 26.5394L15.114 26.4704L14.8259 26.4077L14.8228 26.4069C14.8085 26.4033 14.794 26.3997 14.7802 26.3952L14.5441 26.3196L14.544 26.3196C14.5322 26.3158 14.5205 26.312 14.5091 26.3071L14.273 26.2128L14.273 26.2128C14.2622 26.2083 14.2515 26.2038 14.2411 26.1986L13.7575 25.9469L13.5259 25.7999C13.5137 25.7923 13.502 25.784 13.4902 25.7753L13.2919 25.6242C13.277 25.6131 13.2628 25.6009 13.2492 25.5881L12.8904 25.2484C12.8804 25.239 12.871 25.229 12.8617 25.2189L12.8616 25.2189L12.5216 24.8303L11.4268 23.4536L11.1297 23.1721L10.9778 23.0643L10.6055 22.8705L10.1832 22.7069L8.72927 22.2444C8.71783 22.2403 8.70673 22.2361 8.69564 22.2312L8.22589 22.0201C8.21237 22.0139 8.19955 22.0073 8.18672 22L7.9697 21.8773C7.95895 21.8711 7.94786 21.8645 7.93746 21.8575L7.72911 21.7216C7.70484 21.706 7.68196 21.689 7.66046 21.6696L7.50307 21.5421C7.47465 21.5213 7.44795 21.497 7.42403 21.4706L7.28259 21.3299C7.26595 21.3146 7.25 21.2987 7.23544 21.2814L6.8957 20.8733C6.8794 20.8529 6.86415 20.8307 6.85098 20.8081L6.52337 20.2115C6.51817 20.2015 6.51331 20.1907 6.50881 20.18L6.40862 19.93C6.40446 19.9186 6.40064 19.9075 6.39718 19.8964L6.35939 19.7737L6.35823 19.7696C6.35516 19.7589 6.35215 19.7484 6.34968 19.7376L6.29283 19.4918C6.29005 19.4793 6.28763 19.4665 6.28555 19.4537L6.24811 19.2093C6.24603 19.1961 6.24464 19.1829 6.2436 19.1698L6.22453 18.924C6.22349 18.9108 6.22314 18.8973 6.22314 18.8841V18.6296C6.22314 18.6165 6.22349 18.6029 6.22453 18.5898L6.27341 18.0722C6.27515 18.0583 6.27723 18.0448 6.27965 18.0313L6.3736 17.5341L6.83052 15.6045L6.85514 15.1847L6.77991 14.5361L6.49078 13.314L6.4159 12.7698C6.41416 12.7569 6.41312 12.7438 6.41278 12.7306L6.40307 12.3329C6.40307 12.3194 6.40342 12.3063 6.40446 12.2927L6.42352 12.0473C6.4256 12.0216 6.42942 11.996 6.43531 11.9707L6.47518 11.7627C6.47864 11.7412 6.48315 11.72 6.48905 11.6992L6.66412 11.1643C6.67001 11.1487 6.67694 11.1334 6.68422 11.1189L6.86727 10.7618C6.87524 10.7469 6.88391 10.732 6.89327 10.7178L7.20112 10.2713C7.21187 10.2567 7.22296 10.2428 7.23509 10.2293L7.4899 9.94608C7.50238 9.93256 7.51521 9.91973 7.52873 9.90725L7.84455 9.64205C7.85495 9.63373 7.8657 9.62575 7.87644 9.61847L8.324 9.33038L8.80519 9.08286L9.90554 8.53823L10.265 8.29417L10.4332 8.16555L10.9456 7.67951L11.451 7.13696C11.5016 7.08184 11.562 7.04163 11.6268 7.01389L11.8143 6.77538C11.8216 6.76637 11.8289 6.75735 11.8369 6.74869L12.1815 6.36596C12.1905 6.35556 12.2002 6.34585 12.2102 6.33614L12.3922 6.1635C12.403 6.15344 12.4141 6.14374 12.4255 6.13472L12.6165 5.98184C12.6315 5.97005 12.6467 5.95896 12.6627 5.9489L13.1501 5.67364L13.4122 5.55751C13.4288 5.55023 13.4458 5.54364 13.4631 5.53809L13.7027 5.46148C13.7166 5.45732 13.7304 5.4535 13.7446 5.45004L14.2744 5.34014C14.2861 5.33806 14.2976 5.33633 14.3094 5.33494L14.5583 5.30617C14.5718 5.30443 14.5853 5.30339 14.5988 5.30305L14.8575 5.29369C14.8703 5.29334 14.8828 5.29334 14.8956 5.29369L15.4323 5.32315C15.452 5.32454 15.4721 5.32731 15.4919 5.33113L15.9901 5.42681C16.0105 5.43062 16.0306 5.43582 16.0504 5.44206L16.5468 5.6109L17.0405 5.81197L18.1918 6.30321L18.4244 6.3871C18.4608 6.39993 18.4941 6.41726 18.5256 6.43702L18.8786 6.51017L19.3383 6.53583L19.7914 6.51849L20.0458 6.49943L21.0564 6.40513C21.0692 6.40409 21.0817 6.40374 21.0945 6.40374H21.34C21.3531 6.40374 21.3663 6.40409 21.3795 6.40513L21.6249 6.42385C21.6385 6.42489 21.6516 6.42628 21.6648 6.42836L21.9089 6.46615C21.9252 6.46857 21.9414 6.47169 21.9574 6.47585L22.3439 6.59095C22.3616 6.59684 22.3793 6.60412 22.3966 6.61175L22.762 6.78925C22.7776 6.79722 22.7929 6.80589 22.8078 6.81525L23.1468 7.05099C23.1611 7.06139 23.1749 7.07283 23.1881 7.08462L23.5954 7.48225L23.8561 7.82685C23.8676 7.84245 23.8783 7.85909 23.888 7.87608L24.1324 8.32641C24.1404 8.34166 24.1473 8.35726 24.1539 8.37321L24.4268 9.11406L24.9346 10.8076L25.1038 11.2125L25.3091 11.5907L25.5687 11.9332L26.5564 13.1109L26.7162 13.3435C26.7235 13.3536 26.7297 13.364 26.736 13.3744L26.9974 13.8566C27.0029 13.8677 27.0078 13.8788 27.0123 13.8899L27.1991 14.4078C27.2023 14.4196 27.2057 14.4317 27.2085 14.4439L27.2369 14.5666C27.2397 14.5794 27.2425 14.5926 27.2446 14.6058L27.2633 14.7285C27.265 14.741 27.2667 14.7534 27.2674 14.7663ZM26.0055 16.0443L26.2097 15.4543L26.2465 15.0712L26.1979 14.6958L26.0575 14.3051L25.8457 13.914L25.5718 13.5379L25.2577 13.1614L24.6046 12.3931L24.4458 12.172C24.4354 12.157 24.4254 12.1418 24.4163 12.1262L24.1719 11.6759C24.166 11.6648 24.1612 11.654 24.156 11.6429L23.87 10.9222L23.2751 8.97733L23.1967 8.78285L22.9374 8.33286L22.6601 8.00768L22.2739 7.70746L21.9005 7.53863L21.524 7.45854L21.1122 7.44294L20.6216 7.47934L19.6111 7.57364C19.5982 7.57468 19.5858 7.57503 19.5729 7.57503L19.0443 7.56532L18.7777 7.54521C18.7645 7.54417 18.7517 7.54279 18.7388 7.54071L18.4934 7.50292C18.4806 7.50118 18.4677 7.49841 18.4553 7.49564L17.9647 7.38262C17.8562 7.35766 17.7643 7.29977 17.6953 7.2228L17.3455 7.09037L16.1769 6.58249L15.7626 6.44174L15.3244 6.3575L14.8762 6.33289L14.4456 6.36547L13.9991 6.45804L13.8056 6.52009L13.2447 6.81061L13.0911 6.93333L12.94 7.07651L12.6207 7.4315L12.3156 7.82013C12.2511 7.90229 12.1655 7.95672 12.0733 7.98792L11.312 8.77349L11.1133 8.95272C11.1026 8.96208 11.0918 8.97109 11.0808 8.97976L10.6713 9.28171L10.1998 9.56634L8.83464 10.2354L8.24598 10.6608L8.02654 10.9049L7.77936 11.2637L7.55852 11.7514L7.48468 12.044C7.4826 12.0565 7.48017 12.069 7.4774 12.0815L7.44343 12.3529L7.45175 12.6705L7.51276 13.1225L7.79842 14.321C7.80154 14.3335 7.80397 14.346 7.8057 14.3588L7.87469 14.8687L7.89549 15.1346C7.89688 15.1544 7.89723 15.1742 7.89653 15.1943L7.86706 15.7046C7.86602 15.7188 7.86429 15.733 7.86186 15.7472L7.77416 16.2447L7.64311 16.7727L7.39108 17.7527L7.28014 18.4412L7.26454 18.8642L7.36022 19.4854L7.46284 19.7624L7.73013 20.2492L8.07403 20.6409C8.08755 20.653 8.10003 20.6655 8.11217 20.679L8.22171 20.7775C8.23593 20.7882 8.24945 20.799 8.26262 20.8108L8.39228 20.9096L8.68037 21.0829L9.09915 21.2712L9.54047 21.4178L10.7722 21.8127L11.0229 21.9163C11.034 21.9212 11.0447 21.926 11.0554 21.9312L11.5058 22.1663C11.5255 22.177 11.5446 22.1892 11.563 22.2023L11.9922 22.539C12.0022 22.548 12.0119 22.5577 12.0213 22.5677L12.37 22.9453L13.6212 24.5063L13.945 24.8132L14.1038 24.9341L14.4865 25.163L14.8789 25.3342L15.0748 25.397L15.5189 25.4798L15.7224 25.5017L16.1557 25.4933L16.5787 25.4295L16.7853 25.3741L17.1996 25.2167L17.6007 25.0028L18.0063 24.7462L18.8657 24.1867L19.1073 24.0598C19.1209 24.0529 19.1344 24.0467 19.1486 24.0408L19.375 23.9468C19.3864 23.942 19.3979 23.9378 19.4097 23.9336L19.6371 23.8577C19.6509 23.8532 19.6648 23.8494 19.679 23.8459L20.1845 23.7367C20.197 23.7343 20.2098 23.7326 20.2223 23.7308L20.9901 23.6618L21.9809 23.5967L22.4119 23.5239L22.8355 23.3855L23.2116 23.1976L23.7181 22.8118L24.0357 22.4176L24.1993 22.1313L24.285 21.9441L24.355 21.7492L24.468 21.2968L24.5311 20.8572L24.5488 20.3754L24.5401 20.1299L24.4829 18.9595C24.4829 18.9464 24.4836 18.9328 24.4846 18.9197L24.494 18.7969C24.495 18.7817 24.4971 18.7664 24.4996 18.7512L24.5363 18.5213C24.5384 18.5061 24.5415 18.4908 24.5453 18.4759L24.5734 18.3626C24.5769 18.349 24.5807 18.3355 24.5852 18.3223L24.6608 18.0963C24.6684 18.0734 24.6777 18.0509 24.6885 18.0294L24.8837 17.6692L25.0268 17.4439C25.0352 17.4307 25.0442 17.4182 25.0535 17.4057L25.7909 16.4156L26.0055 16.0443Z" fill="#828487"/>
</g>
</g>
</svg>
