<svg width="33" height="32" viewBox="0 0 33 32" fill="none" xmlns="http://www.w3.org/2000/svg">
<g id="Icon / breakfast">
<g id="Icon">
<path id="Shape" fill-rule="evenodd" clip-rule="evenodd" d="M16.5024 30C19.9453 29.9959 23.2666 28.7259 25.8341 26.4318V30H29.3335V21.5907C29.3592 21.5324 29.3843 21.474 29.4088 21.4157L30.5 20.3249V6.08345C30.5 4.19521 28.9713 2.00014 27.0006 2.00014H25.8341V5.56837C21.1845 1.40605 14.3417 0.824607 9.05671 4.14278C3.7717 7.46095 1.32096 13.8773 3.0479 19.8746C4.77484 25.8719 10.2624 30.0016 16.5024 30ZM27.0006 3.16681C28.2569 3.16681 29.3336 4.77097 29.3336 6.08346V19.8419L28.1671 21.0086V28.8334H27.0006V3.16681ZM25.8341 7.19179C23.4077 4.62596 20.0335 3.17056 16.5024 3.16681C10.6489 3.16689 5.53752 7.12907 4.07717 12.7984C2.61681 18.4676 5.17775 24.4068 10.3025 27.2357C15.4272 30.0646 21.8165 29.066 25.8341 24.8084V7.19179Z" fill="white"/>
<path id="Shape_2" fill-rule="evenodd" clip-rule="evenodd" d="M9.53467 18.8525C9.53628 16.9704 11.0631 15.446 12.9448 15.4476C14.8258 15.4511 16.3489 16.977 16.3492 18.8583C16.3476 20.7404 14.8208 22.2648 12.939 22.2632C11.0572 22.2616 9.53306 20.7346 9.53467 18.8525ZM10.8722 19.7144C11.2198 20.5522 12.0379 21.0978 12.9448 21.0966C14.1795 21.0937 15.1798 20.0933 15.1826 18.8584C15.1838 17.9514 14.6383 17.1331 13.8007 16.7855C12.9631 16.4378 11.9986 16.6294 11.3574 17.2707C10.7161 17.9121 10.5246 18.8767 10.8722 19.7144Z" fill="white"/>
<path id="Shape_3" d="M18.8177 18.1917C18.7383 17.8812 18.4232 17.6929 18.1121 17.7701C17.8011 17.8474 17.6106 18.1612 17.6857 18.4729C17.9496 19.745 17.571 21.0655 16.6732 22.0044C16.5216 22.1508 16.4608 22.3677 16.5141 22.5717C16.5675 22.7756 16.7268 22.9349 16.9307 22.9883C17.1346 23.0417 17.3514 22.9809 17.4979 22.8292C18.6815 21.5991 19.1762 19.8609 18.8177 18.1917Z" fill="white"/>
<path id="Shape_4" fill-rule="evenodd" clip-rule="evenodd" d="M23.9134 7.42104L22.7469 6.25438C22.2127 5.71579 21.4409 5.48667 20.6994 5.64656C19.9579 5.80645 19.349 6.33331 19.0842 7.04421C16.4531 6.26991 13.6143 6.69911 11.3296 8.21662C9.04483 9.73413 7.54812 12.1846 7.24103 14.9104C6.06116 16.6101 5.70253 18.7482 6.26324 20.7399C6.82395 22.7316 8.24532 24.3685 10.1385 25.2027C11.2011 26.5221 12.8037 27.2895 14.4976 27.2899C15.042 27.2963 15.5839 27.2166 16.1033 27.0536C17.3084 26.6615 18.3718 25.9237 19.1612 24.932C22.0758 24.0722 24.3868 21.8427 25.3513 18.9606C26.3157 16.0784 25.812 12.9068 24.002 10.4654C24.7784 9.58554 24.7396 8.25426 23.9134 7.42104ZM21.1681 6.76711C21.451 6.76679 21.7223 6.87908 21.9222 7.07919L23.0887 8.24585C23.3152 8.46886 23.4296 8.78181 23.4003 9.09833C23.3711 9.41486 23.2012 9.70151 22.9377 9.87918L22.9032 9.90076C22.7022 10.0265 22.4649 10.0816 22.229 10.0571H22.2057C22.0961 10.0434 21.9891 10.0134 21.8884 9.96785C21.8825 9.96519 21.8769 9.96198 21.8712 9.95873C21.8669 9.95626 21.8626 9.95378 21.8581 9.95151C21.7556 9.90222 21.6619 9.83662 21.5805 9.75726L20.414 8.5906C20.2083 8.38483 20.0964 8.10333 20.1049 7.81244V7.80486C20.117 7.22679 20.59 6.76508 21.1681 6.76711ZM19.2475 12.0876C19.6643 12.5034 20.3389 12.5034 20.7557 12.0876C21.1714 11.6707 21.1714 10.996 20.7557 10.5791L19.5893 9.41246C19.1703 9.01103 18.5073 9.01815 18.097 9.42849C17.6868 9.83883 17.6797 10.5019 18.081 10.921L19.2475 12.0876ZM15.7172 25.9528C13.9481 26.4819 12.0376 25.8402 10.9464 24.3504L10.8542 24.239L10.7207 24.1807C9.12679 23.5165 7.91435 22.1729 7.41658 20.5192C6.9188 18.8656 7.18806 17.0758 8.15035 15.6419L8.19934 15.5742C8.21866 15.5465 8.23912 15.52 8.25958 15.4934L8.25964 15.4933C8.27189 15.4774 8.28415 15.4615 8.29616 15.4453C8.41515 15.2831 8.54267 15.1273 8.67818 14.9786L8.70443 14.9495L8.73067 14.9203C9.18744 14.4314 9.72509 14.0249 10.32 13.7187C10.5096 13.6224 10.7043 13.5365 10.9032 13.4614L10.9819 13.4328C11.1569 13.3698 11.3319 13.3162 11.5121 13.2695C11.5294 13.2652 11.5466 13.2607 11.5639 13.2561L11.5639 13.2561C11.5869 13.25 11.6099 13.2439 11.6328 13.2386C11.8031 13.1983 11.9758 13.1686 12.1496 13.1447C12.1687 13.142 12.1877 13.1388 12.2066 13.1356C12.2333 13.1312 12.26 13.1267 12.2872 13.1237C12.5054 13.0974 12.7248 13.084 12.9445 13.0834C14.9152 13.0813 16.7496 14.0889 17.8052 15.7533L17.8845 15.8776L18.0134 15.9493C18.508 16.2235 20.8993 17.7868 19.4581 21.6286L19.4301 21.7342C19.2391 22.5853 18.8682 23.3856 18.3424 24.0815L18.2257 24.2396C17.5713 25.0397 16.7005 25.6344 15.7172 25.9528ZM20.5656 21.9897C20.4685 22.441 20.3255 22.8812 20.1387 23.3034C22.3068 22.2277 23.8851 20.2442 24.4464 17.8895C25.0077 15.5349 24.494 13.0525 23.0443 11.1141C22.9518 11.1454 22.8573 11.1705 22.7615 11.1894C22.6257 11.2151 22.4879 11.2282 22.3497 11.2284H22.3346H22.3118H22.2232C22.2717 12.1499 21.7464 13.0057 20.9029 13.3795C20.0593 13.7533 19.0727 13.5675 18.4228 12.9125L17.2563 11.7459C16.3856 10.8733 16.3856 9.4603 17.2563 8.5877C17.5275 8.3201 17.8632 8.12719 18.2309 8.0277C17.6635 7.90022 17.0838 7.83509 16.5022 7.83345C13.0261 7.82136 9.92685 10.0207 8.79012 13.3063C8.80065 13.2985 8.81144 13.2914 8.82219 13.2843C8.83406 13.2765 8.84586 13.2687 8.85719 13.2602C8.97675 13.1727 9.09748 13.0887 9.22287 13.0088C9.24125 12.9969 9.26006 12.9857 9.27891 12.9744C9.29058 12.9675 9.30226 12.9605 9.31386 12.9533C9.74157 12.6889 10.1969 12.472 10.6716 12.3064C10.687 12.3013 10.7016 12.2957 10.716 12.2903C10.7311 12.2845 10.7459 12.2788 10.7614 12.2738C10.8845 12.2324 11.0105 12.1979 11.1364 12.1635L11.1365 12.1635L11.1365 12.1635C11.217 12.1419 11.2975 12.1203 11.3785 12.1011C11.4858 12.0766 11.5861 12.055 11.7028 12.034C11.8194 12.013 11.9361 11.9961 12.0527 11.9809C12.0772 11.9778 12.1015 11.9745 12.1257 11.9712C12.1865 11.9629 12.2471 11.9547 12.3088 11.9489C12.5193 11.929 12.731 11.9168 12.9445 11.9168C15.2622 11.9147 17.4266 13.0751 18.708 15.0067C19.3752 15.4232 21.7548 17.2117 20.8765 20.9391C20.8686 20.9729 20.862 21.0059 20.8555 21.0389C20.8462 21.0862 20.8368 21.1335 20.8234 21.183C20.8077 21.2414 20.787 21.303 20.7664 21.3643C20.7532 21.4034 20.7401 21.4424 20.7283 21.4805C20.7175 21.516 20.7068 21.5514 20.6962 21.5868C20.6565 21.7191 20.6167 21.8517 20.5656 21.9897Z" fill="white"/>
</g>
</g>
</svg>
