<svg width="33" height="32" viewBox="0 0 33 32" fill="none" xmlns="http://www.w3.org/2000/svg">
<g id="Icon / pasta">
<g id="Icon">
<path id="Shape" fill-rule="evenodd" clip-rule="evenodd" d="M25.006 16.8178C28.549 17.8442 30.5 19.4261 30.5 21.2724C30.5 22.7856 29.2207 24.0044 27.2365 24.9102C26.9858 25.9587 25.453 30 16.7117 30C7.85674 30 6.06981 25.8643 5.77667 24.9161C3.78499 24.0097 2.5 22.7889 2.5 21.2724C2.5 18.6909 6.13669 17.3122 8.40542 16.7033C9.30785 14.805 10.5055 13.3589 11.8396 12.6057C12.0895 11.9714 12.9308 10.2776 14.7967 10.2776C15.9792 10.2776 16.7976 10.7283 17.3654 11.3248C18.5483 11.3634 19.4342 11.8997 19.9936 12.9308C20.0662 13.0647 20.1296 13.2065 20.1886 13.3518C22.3353 13.5044 23.8717 14.9513 24.8666 16.8067C24.9123 16.8023 24.9589 16.8037 25.006 16.8178ZM14.9283 13.5846C14.2923 13.1679 13.511 13.1161 12.6758 13.4577C11.0921 14.1057 9.05793 16.3111 8.09894 20.5564C8.02767 20.87 7.76927 21.0512 7.5227 20.9619C7.27522 20.8719 7.13237 20.5445 7.20303 20.231C7.2048 20.2232 7.20676 20.2155 7.20873 20.2079C7.21059 20.2006 7.21246 20.1933 7.21416 20.1859C6.70989 20.481 6.64292 20.6894 6.64226 20.6922C6.8121 21.3836 10.433 22.7205 16.7493 22.7205C23.0631 22.7205 26.6837 21.3843 26.856 20.6676C26.8553 20.6676 26.8536 20.6648 26.8504 20.6595C26.8216 20.6123 26.6703 20.364 26.0213 20.0447C26.0255 20.0649 26.0302 20.0851 26.0349 20.1053L26.035 20.1054C26.0406 20.1296 26.0463 20.1538 26.0511 20.1779C26.1141 20.4941 25.9634 20.8157 25.7138 20.8958C25.6756 20.9081 25.6371 20.9138 25.5992 20.9138C25.3911 20.9138 25.2013 20.7357 25.1479 20.4679C24.2253 15.8489 21.7932 14.8007 20.5246 14.5743C20.5777 14.888 20.6129 15.2119 20.6319 15.5419C21.5107 15.6211 23.5226 16.2889 24.2608 20.6322C24.3148 20.9515 24.1549 21.2658 23.9035 21.3347C23.8704 21.3436 23.8374 21.3478 23.8046 21.3478C23.5899 21.3478 23.397 21.1585 23.3497 20.8815C22.7497 17.3485 21.2718 16.789 20.6404 16.7164C20.6288 17.0257 20.6083 17.3338 20.5796 17.6366C21.1288 17.9632 22.1063 18.8446 22.4486 21.092C22.4975 21.412 22.3322 21.7221 22.0795 21.7841C22.0498 21.7914 22.0201 21.7948 21.9907 21.7948C21.772 21.7948 21.577 21.5986 21.5339 21.3159C21.314 19.8727 20.7953 19.1877 20.4222 18.871C20.1803 20.4037 19.8295 21.588 19.7973 21.6948C19.7263 21.9299 19.5495 22.0745 19.3621 22.0745C19.3069 22.0745 19.2505 22.0618 19.1959 22.0357C18.9557 21.9191 18.8353 21.5775 18.9269 21.2728C19.3697 19.8008 20.2862 15.5532 19.2256 13.6C18.9839 13.1549 18.65 12.8499 18.2195 12.6752C18.2231 12.684 18.2269 12.6928 18.2308 12.7017C18.2358 12.7133 18.2408 12.7249 18.2454 12.7363C19.2204 15.1793 18.703 19.0687 17.0153 21.9845C16.924 22.1422 16.7826 22.2257 16.6395 22.2257C16.5436 22.2257 16.4472 22.1884 16.3641 22.1111C16.1567 21.9179 16.1121 21.5482 16.2643 21.2851C17.7316 18.7502 18.226 15.3043 17.4141 13.2703C16.9346 12.0686 16.0538 11.4594 14.7967 11.4594C14.1636 11.4594 13.6957 11.736 13.358 12.0717C14.3049 11.9518 15.1791 12.2532 15.8846 12.9587C18.4771 15.5513 14.8307 21.6706 14.6745 21.9299C14.5826 22.0818 14.4443 22.1615 14.3042 22.1615C14.2056 22.1615 14.1058 22.1218 14.0215 22.0399C13.8171 21.8414 13.7783 21.4705 13.9345 21.2116C13.9538 21.1796 15.0662 19.285 15.601 17.3558C14.8015 17.3904 13.5356 18.0452 12.7283 21.4532C12.6676 21.709 12.4826 21.8741 12.2825 21.8741C12.2379 21.8741 12.1927 21.866 12.1481 21.8491C11.9015 21.7552 11.762 21.4255 11.836 21.1131C12.9033 16.6075 14.8621 16.1179 15.8416 16.1816C15.9109 15.6136 15.8934 15.0784 15.7451 14.625C14.8403 14.6822 11.5497 15.2917 10.3845 21.0685C10.3305 21.3355 10.1413 21.5128 9.93352 21.5128C9.89531 21.5128 9.85649 21.5071 9.81767 21.4944C9.56836 21.4136 9.41824 21.0916 9.48193 20.7753C10.5598 15.4318 13.368 13.9781 14.9283 13.5846ZM16.7117 28.8182C10.5355 28.8182 8.08827 26.7554 7.16008 25.459C9.78588 26.348 13.1924 26.8103 16.5 26.8103C19.8638 26.8103 23.3311 26.3329 25.9742 25.414C25.2098 26.6837 22.9915 28.8182 16.7117 28.8182ZM3.43172 21.2724C3.43172 23.3329 8.79867 25.6285 16.5 25.6285C24.2014 25.6285 29.5683 23.3329 29.5683 21.2724C29.5683 20.4467 28.4814 19.1781 25.4849 18.1834C25.5426 18.3389 25.5966 18.4952 25.648 18.6526C25.6763 18.6563 25.7047 18.6625 25.733 18.6732C26.6146 19.0083 27.7868 19.5811 27.7868 20.6795C27.7868 23.2236 20.8488 23.9023 16.7493 23.9023C12.6498 23.9023 5.71182 23.2236 5.71182 20.6795C5.71182 19.6278 6.78218 19.0669 7.6088 18.7347C7.67881 18.5138 7.75205 18.2964 7.8291 18.0835C4.6083 19.0841 3.43172 20.3981 3.43172 21.2724Z" fill="#828487"/>
<path id="Shape_2" d="M16.1383 8.38941C15.9751 8.59271 16.0042 8.89269 16.2032 9.05926C16.2899 9.13178 16.3946 9.16711 16.4983 9.16711C16.6332 9.16711 16.7667 9.10761 16.8589 8.99279C17.3851 8.33673 18.0629 6.691 16.8622 5.15776C15.8802 3.90358 16.7309 2.91732 16.8337 2.80653C17.0117 2.61827 17.0075 2.31828 16.824 2.13529C16.6399 1.95198 16.3454 1.95523 16.1653 2.14334C15.6221 2.7117 14.9169 4.19737 16.1349 5.75246C17.1588 7.06024 16.1789 8.3375 16.1383 8.38941Z" fill="#828487"/>
<path id="Shape_3" d="M11.4634 9.13821C11.3003 9.34166 11.3294 9.64149 11.5286 9.80806C11.6151 9.88058 11.7197 9.9159 11.8234 9.9159C11.9584 9.9159 12.0921 9.8564 12.184 9.74158C12.538 9.30013 12.9941 8.19301 12.1874 7.16258C11.6976 6.53689 12.0776 6.05747 12.1604 5.96605C12.3369 5.77763 12.332 5.47889 12.1492 5.29635C11.9651 5.11289 11.6703 5.1163 11.4904 5.30441C11.1195 5.69256 10.6358 6.70486 11.4601 7.75728C11.9839 8.42652 11.5159 9.07018 11.4634 9.13821Z" fill="#828487"/>
<path id="Shape_4" d="M21.2979 9.13821C21.1347 9.3415 21.1639 9.64149 21.3628 9.80806C21.4496 9.88058 21.5542 9.9159 21.6579 9.9159C21.7926 9.9159 21.9263 9.8564 22.0185 9.74158C22.3728 9.30013 22.8289 8.19301 22.0219 7.16258C21.532 6.53689 21.9121 6.05747 21.9949 5.96605C22.1714 5.77763 22.1665 5.47889 21.9836 5.29635C21.7995 5.11289 21.5048 5.1163 21.3249 5.30441C20.954 5.69256 20.4702 6.70486 21.2946 7.75744C21.8187 8.42652 21.3507 9.07003 21.2979 9.13821Z" fill="#828487"/>
</g>
</g>
</svg>
